<svg width="32" height="33" viewBox="0 0 32 33" fill="none" xmlns="http://www.w3.org/2000/svg">
<path d="M14.667 5.83331H5.33366C4.62641 5.83331 3.94814 6.11426 3.44804 6.61436C2.94794 7.11446 2.66699 7.79274 2.66699 8.49998V27.1666C2.66699 27.8739 2.94794 28.5522 3.44804 29.0523C3.94814 29.5524 4.62641 29.8333 5.33366 29.8333H24.0003C24.7076 29.8333 25.3858 29.5524 25.8859 29.0523C26.386 28.5522 26.667 27.8739 26.667 27.1666V17.8333" stroke="#A0A0A0" stroke-width="2" stroke-linecap="round" stroke-linejoin="round"/>
<path d="M24.667 3.83331C25.1974 3.30288 25.9168 3.00488 26.667 3.00488C27.4171 3.00488 28.1366 3.30288 28.667 3.83331C29.1974 4.36374 29.4954 5.08316 29.4954 5.83331C29.4954 6.58346 29.1974 7.30288 28.667 7.83331L16.0003 20.5L10.667 21.8333L12.0003 16.5L24.667 3.83331Z" fill="#D9D9D9" stroke="#A0A0A0" stroke-width="2" stroke-linecap="round" stroke-linejoin="round"/>
</svg>
