<svg width="24" height="24" viewBox="0 0 24 24" fill="none" xmlns="http://www.w3.org/2000/svg">
<path d="M4.8585 23.4074C3.92822 23.4074 3.01885 22.5487 2.83113 21.4936L2.27039 18.3427C1.96092 16.6032 1.65154 14.8644 1.34225 13.126C1.25938 12.6599 1.37148 12.2136 1.65762 11.8731C1.98157 11.4859 2.50504 11.264 3.0934 11.264H20.9069C21.495 11.264 22.0185 11.4859 22.3424 11.8728C22.6283 12.2136 22.7407 12.6588 22.6575 13.126C22.1616 15.9152 21.6654 18.7048 21.1689 21.4947C20.9812 22.5501 20.0718 23.4085 19.1415 23.4085L4.8585 23.4074ZM17.1474 14.1948C16.857 14.1948 16.6025 14.4291 16.5556 14.7399L15.5218 21.5923C15.4697 21.9374 15.687 22.2576 16.0061 22.3059C16.0327 22.3099 16.0596 22.3119 16.0865 22.312C16.3775 22.312 16.632 22.0775 16.6789 21.7668L17.713 14.9151C17.765 14.5695 17.5478 14.2493 17.2287 14.201C17.2018 14.197 17.1746 14.1949 17.1474 14.1948ZM6.85289 14.1948C6.7595 14.195 6.66766 14.2187 6.58587 14.2637C6.50407 14.3088 6.43496 14.3738 6.38493 14.4527C6.29606 14.5893 6.26108 14.7541 6.28678 14.9151L7.32084 21.7668C7.36777 22.0775 7.62227 22.312 7.91296 22.312C7.9399 22.312 7.96679 22.3099 7.99342 22.3059C8.0719 22.2937 8.1469 22.265 8.21347 22.2216C8.28004 22.1783 8.33666 22.1213 8.37958 22.0544C8.46842 21.9178 8.5034 21.753 8.47773 21.5921L7.44447 14.7399C7.39754 14.4291 7.14331 14.1948 6.85289 14.1948ZM18.8468 14.168C18.5564 14.168 18.3019 14.4025 18.2547 14.7136L17.2212 21.5647C17.1941 21.7362 17.2358 21.9115 17.337 22.0526C17.3882 22.1243 17.4558 22.1828 17.5341 22.2231C17.6124 22.2635 17.6992 22.2846 17.7873 22.2847C18.0774 22.2847 18.3317 22.0504 18.3773 21.7397L19.4113 14.8874C19.4639 14.5421 19.2477 14.2219 18.9275 14.1726C18.9009 14.1688 18.874 14.167 18.8471 14.1672L18.8468 14.168ZM5.15322 14.168C5.12584 14.168 5.0985 14.1701 5.07143 14.1742C4.75231 14.2227 4.53509 14.5432 4.58711 14.8882L5.62118 21.7399C5.66811 22.0507 5.92233 22.2849 6.21276 22.2849C6.24023 22.2849 6.26766 22.2828 6.29482 22.2788C6.61368 22.2305 6.83116 21.9103 6.77914 21.5652L5.74507 14.7127C5.69814 14.4017 5.44365 14.1672 5.15322 14.1672V14.168ZM20.5462 14.1412C20.2561 14.1412 20.0016 14.3754 19.9546 14.6859L18.9206 21.5376C18.8949 21.6985 18.9298 21.8632 19.0187 21.9997C19.0616 22.0666 19.1182 22.1236 19.1848 22.1669C19.2514 22.2103 19.3264 22.239 19.4049 22.2511C19.4315 22.2551 19.4584 22.2572 19.4853 22.2573C19.776 22.2573 20.0303 22.0228 20.0772 21.712L21.1113 14.8603C21.1633 14.515 20.9461 14.1946 20.6267 14.1463C20.5999 14.1422 20.573 14.1402 20.5459 14.1401L20.5462 14.1412ZM3.45436 14.1412C3.42738 14.1407 3.4004 14.1423 3.37364 14.1457C3.05452 14.194 2.8373 14.5142 2.88906 14.8598L3.92205 21.7131C3.96871 22.0238 4.22294 22.2584 4.51363 22.2584C4.60168 22.2583 4.68843 22.2372 4.76669 22.1968C4.84495 22.1564 4.91246 22.098 4.96362 22.0263C5.06494 21.8853 5.10657 21.7099 5.07947 21.5384L4.04568 14.6851C3.99875 14.3744 3.74452 14.1401 3.45409 14.1401L3.45436 14.1412Z" fill="white"/>
<path d="M20.9069 11.4105C21.4513 11.4105 21.9335 11.6131 22.2293 11.9668C22.487 12.2746 22.5875 12.6765 22.5124 13.0992C22.0163 15.8884 21.5201 18.6779 21.0238 21.4678C20.934 21.9568 20.6896 22.4039 20.3266 22.7433C19.9713 23.0766 19.5505 23.2598 19.1421 23.2598H4.8585C4.45008 23.2598 4.02932 23.0766 3.67372 22.7433C3.31059 22.404 3.06614 21.9568 2.97648 21.4678C2.78965 20.4161 2.60256 19.3644 2.4152 18.3129C2.10662 16.5749 1.79742 14.837 1.4876 13.0992C1.41251 12.6768 1.51441 12.2746 1.77052 11.9668C2.0655 11.6131 2.54821 11.4105 3.0934 11.4105H20.9069ZM19.4856 22.4049C19.8484 22.4049 20.1657 22.1164 20.2233 21.734L21.2574 14.8823C21.3215 14.4565 21.0488 14.0609 20.6492 14.0006C20.6148 13.9952 20.58 13.9925 20.5451 13.9925C20.1826 13.9925 19.8656 14.2807 19.8077 14.6634L18.7747 21.5156C18.7435 21.7126 18.7867 21.9141 18.8959 22.081C18.9505 22.1649 19.0221 22.2364 19.1061 22.2908C19.1901 22.3452 19.2846 22.3813 19.3834 22.3968C19.4178 22.4022 19.4525 22.4049 19.4872 22.4049H19.4856ZM4.51444 22.4049C4.62554 22.4048 4.73503 22.3783 4.83388 22.3275C4.93273 22.2767 5.0181 22.2032 5.08296 22.1129C5.20742 21.9404 5.25888 21.7258 5.22616 21.5156L4.19156 14.6628C4.13364 14.2807 3.81612 13.992 3.45409 13.992C3.41934 13.992 3.38464 13.9947 3.35031 14C2.95073 14.0601 2.678 14.4562 2.7421 14.8818L3.7759 21.734C3.83328 22.1164 4.15133 22.4049 4.51336 22.4049H4.51444ZM17.7878 22.4317C18.1504 22.4317 18.4674 22.1435 18.525 21.7609L19.5591 14.9089C19.6234 14.483 19.3507 14.0872 18.9509 14.0266C18.9166 14.0215 18.882 14.0189 18.8474 14.0188C18.4845 14.0188 18.1673 14.3073 18.1093 14.6897L17.0753 21.5424C17.0425 21.7527 17.0939 21.9674 17.2182 22.14C17.273 22.2158 17.3423 22.28 17.4221 22.3287C17.5019 22.3775 17.5906 22.41 17.683 22.4242C17.7175 22.4296 17.7523 22.4323 17.7873 22.4323L17.7878 22.4317ZM6.21276 22.4323C6.2476 22.4323 6.28239 22.4296 6.31681 22.4242C6.71612 22.3638 6.98912 21.968 6.92502 21.5427L5.89096 14.6907C5.83303 14.3081 5.51552 14.0199 5.15322 14.0199C5.11848 14.0199 5.08379 14.0225 5.04944 14.0277C4.64986 14.0886 4.37687 14.4839 4.44123 14.9097L5.47529 21.7619C5.53322 22.1443 5.85073 22.4323 6.21276 22.4323ZM16.0871 22.4596C16.4502 22.4596 16.7674 22.1712 16.8253 21.7888L17.8594 14.9371C17.9235 14.5112 17.6508 14.1154 17.2512 14.055C17.2168 14.0499 17.1822 14.0473 17.1474 14.0473C16.7846 14.0473 16.4676 14.3355 16.4097 14.7181L15.3756 21.5703C15.3115 21.9957 15.5843 22.3912 15.9844 22.4519C16.0184 22.457 16.0527 22.4596 16.0871 22.4596ZM7.91296 22.4596C8.03055 22.4595 8.14622 22.4297 8.24931 22.3731C8.35241 22.3165 8.43962 22.2349 8.50294 22.1357C8.61209 21.9688 8.65521 21.7671 8.62388 21.5701L7.59035 14.7178C7.5327 14.3355 7.21492 14.047 6.85288 14.047C6.73528 14.0472 6.61962 14.077 6.51653 14.1337C6.41344 14.1903 6.32623 14.272 6.26291 14.3711C6.15395 14.5382 6.11085 14.7398 6.14197 14.9368L7.17603 21.7885C7.23369 22.1709 7.55147 22.4594 7.91404 22.4594L7.91296 22.4596ZM20.9069 11.1153H3.0934C1.84614 11.1153 0.997111 12.0277 1.19717 13.1507C1.6931 15.9403 2.18931 18.7298 2.68578 21.5194C2.88584 22.6437 3.85849 23.555 4.85796 23.555H19.1421C20.1421 23.555 21.1147 22.6426 21.3143 21.5194C21.8106 18.7302 22.3068 15.9406 22.8029 13.1507C23.0029 12.0266 22.1539 11.1153 20.9069 11.1153ZM19.4856 22.1097C19.4656 22.1096 19.4456 22.1081 19.4258 22.1051C19.1869 22.0692 19.0254 21.8247 19.0654 21.5596L20.0994 14.7071C20.1362 14.4656 20.3293 14.2877 20.5451 14.2877C20.5652 14.2877 20.5851 14.2893 20.6049 14.2923C20.8442 14.3285 21.0056 14.5727 20.9656 14.8383L19.9324 21.69C19.8956 21.9337 19.7026 22.1097 19.4864 22.1097H19.4856ZM4.51283 22.1097C4.29668 22.1097 4.1036 21.9337 4.06713 21.69L3.0336 14.8383C2.99364 14.5727 3.15508 14.3285 3.39429 14.2923C3.41409 14.2893 3.43407 14.2878 3.45409 14.2877C3.66997 14.2877 3.86332 14.4643 3.90006 14.7071L4.93359 21.5596C4.97408 21.8247 4.81238 22.0695 4.57343 22.1051C4.55364 22.1081 4.53365 22.1096 4.51363 22.1097H4.51283ZM17.7873 22.1365C17.7672 22.1365 17.7471 22.135 17.7272 22.132C17.488 22.0958 17.3266 21.8516 17.3671 21.5864L18.4006 14.7361C18.4376 14.4927 18.6307 14.3161 18.8468 14.3161C18.8667 14.3162 18.8866 14.3177 18.9064 14.3207C19.1456 14.3569 19.307 14.6017 19.2668 14.8668L18.2327 21.7177C18.196 21.9605 18.0032 22.1365 17.7873 22.1365ZM6.21276 22.1365C5.99689 22.1365 5.8038 21.9602 5.76706 21.7171L4.733 14.8654C4.69304 14.6003 4.85448 14.3556 5.09369 14.3194C5.11339 14.3164 5.13329 14.3148 5.15322 14.3148C5.3691 14.3148 5.56245 14.4914 5.59919 14.7348L6.63325 21.587C6.67321 21.8521 6.51177 22.0968 6.27256 22.1325C6.25277 22.1355 6.23278 22.1365 6.21276 22.1365ZM16.0871 22.1634C16.0673 22.1634 16.0476 22.162 16.0281 22.1591C15.7889 22.1226 15.6274 21.8784 15.6674 21.6133L16.7017 14.7629C16.7385 14.5198 16.9318 14.3435 17.1477 14.3435C17.1676 14.3434 17.1875 14.3449 17.2072 14.3481C17.4464 14.384 17.6079 14.6288 17.5679 14.8942L16.5336 21.7448C16.4968 21.9881 16.3035 22.1645 16.0871 22.1645V22.1634ZM7.91296 22.1634C7.69655 22.1634 7.50347 21.9871 7.46673 21.7437L6.43266 14.8931C6.39244 14.6277 6.55361 14.3832 6.79308 14.347C6.81286 14.3439 6.83286 14.3424 6.85288 14.3424C7.06876 14.3424 7.26185 14.5187 7.29858 14.7619L8.33238 21.6143C8.37288 21.8795 8.21117 22.1242 7.97223 22.1602C7.95261 22.1631 7.9328 22.1645 7.91296 22.1645V22.1634Z" fill="#285D56"/>
<path d="M0.727868 12.8244C0.650697 12.8243 0.576702 12.7936 0.522108 12.7391C0.467515 12.6845 0.436777 12.6105 0.436635 12.5332V10.9232C0.436493 10.8457 0.467087 10.7714 0.521697 10.7165C0.576306 10.6616 0.650461 10.6306 0.727868 10.6304H23.2719C23.3491 10.6305 23.4232 10.6613 23.4778 10.716C23.5324 10.7707 23.5631 10.8448 23.5631 10.9221V12.5322C23.5632 12.5705 23.5557 12.6085 23.5411 12.6439C23.5265 12.6793 23.5051 12.7115 23.478 12.7387C23.451 12.7658 23.4189 12.7874 23.3835 12.8021C23.3481 12.8168 23.3102 12.8244 23.2719 12.8244H0.727868Z" fill="white"/>
<path d="M23.2719 10.7791C23.31 10.7792 23.3465 10.7944 23.3735 10.8214C23.4004 10.8484 23.4156 10.885 23.4156 10.9232V12.5332C23.4156 12.5713 23.4004 12.6079 23.3734 12.6348C23.3465 12.6617 23.31 12.6768 23.2719 12.6768H0.727868C0.689792 12.6768 0.653272 12.6617 0.626324 12.6348C0.599375 12.6079 0.5842 12.5713 0.584129 12.5332V10.9232C0.584199 10.885 0.599358 10.8484 0.626291 10.8214C0.653224 10.7944 0.689743 10.7792 0.727868 10.7791H23.2719ZM23.2719 10.4839H0.727868C0.611579 10.4841 0.500125 10.5305 0.417972 10.6128C0.335818 10.6952 0.289677 10.8068 0.289677 10.9232V12.5332C0.289748 12.6496 0.336003 12.7612 0.418272 12.8435C0.500542 12.9258 0.612093 12.972 0.728405 12.972H23.2719C23.3882 12.972 23.4998 12.9258 23.582 12.8435C23.6643 12.7612 23.7106 12.6496 23.7106 12.5332V10.9232C23.7107 10.8655 23.6993 10.8084 23.6773 10.7551C23.6553 10.7018 23.623 10.6534 23.5822 10.6126C23.5415 10.5718 23.4931 10.5394 23.4399 10.5173C23.3866 10.4952 23.3295 10.4839 23.2719 10.4839Z" fill="#285D56"/>
<path d="M0.727868 12.8244C0.650697 12.8243 0.576702 12.7936 0.522108 12.7391C0.467515 12.6845 0.436777 12.6105 0.436635 12.5332V10.9232C0.436493 10.8457 0.467087 10.7714 0.521697 10.7165C0.576306 10.6616 0.650461 10.6306 0.727868 10.6304H23.2719C23.3491 10.6305 23.4232 10.6613 23.4778 10.716C23.5324 10.7707 23.5631 10.8448 23.5631 10.9221V12.5322C23.5632 12.5705 23.5557 12.6085 23.5411 12.6439C23.5265 12.6793 23.5051 12.7115 23.478 12.7387C23.451 12.7658 23.4189 12.7874 23.3835 12.8021C23.3481 12.8168 23.3102 12.8244 23.2719 12.8244H0.727868Z" fill="white"/>
<path d="M23.2719 10.7791C23.31 10.7792 23.3465 10.7944 23.3735 10.8214C23.4004 10.8484 23.4156 10.885 23.4156 10.9232V12.5332C23.4156 12.5713 23.4004 12.6079 23.3734 12.6348C23.3465 12.6617 23.31 12.6768 23.2719 12.6768H0.727868C0.689792 12.6768 0.653272 12.6617 0.626324 12.6348C0.599375 12.6079 0.5842 12.5713 0.584129 12.5332V10.9232C0.584199 10.885 0.599358 10.8484 0.626291 10.8214C0.653224 10.7944 0.689743 10.7792 0.727868 10.7791H23.2719ZM23.2719 10.4839H0.727868C0.611579 10.4841 0.500125 10.5305 0.417972 10.6128C0.335818 10.6952 0.289677 10.8068 0.289677 10.9232V12.5332C0.289748 12.6496 0.336003 12.7612 0.418272 12.8435C0.500542 12.9258 0.612093 12.972 0.728405 12.972H23.2719C23.3882 12.972 23.4998 12.9258 23.582 12.8435C23.6643 12.7612 23.7106 12.6496 23.7106 12.5332V10.9232C23.7107 10.8655 23.6993 10.8084 23.6773 10.7551C23.6553 10.7018 23.623 10.6534 23.5822 10.6126C23.5415 10.5718 23.4931 10.5394 23.4399 10.5173C23.3866 10.4952 23.3295 10.4839 23.2719 10.4839Z" fill="#285D56"/>
<path d="M0.275196 10.5896C0.148083 10.5896 0.148083 10.5531 0.148083 10.5263C0.146622 10.5105 0.149206 10.4946 0.155592 10.4801C0.160151 10.4756 0.187236 10.463 0.253743 10.463H23.7466C23.8251 10.463 23.8444 10.4799 23.845 10.4804C23.8512 10.4948 23.8536 10.5106 23.852 10.5263C23.852 10.5531 23.852 10.5896 23.7248 10.5896H0.275196Z" fill="white"/>
<path d="M23.7466 10.3154H0.253206C0.149692 10.3154 0.0872086 10.3387 0.0496647 10.3768C0.0320646 10.3973 0.0186705 10.421 0.0102495 10.4467C0.00182846 10.4723 -0.00145419 10.4994 0.000589403 10.5263C0.000589403 10.643 0.0700455 10.7372 0.275196 10.7372H23.7248C23.9297 10.7372 23.9994 10.643 23.9994 10.5263C24.0034 10.4719 23.9858 10.4182 23.9504 10.3768C23.9128 10.3387 23.8501 10.3154 23.7466 10.3154Z" fill="#285D56"/>
<path d="M8.58098 12.1272C8.5504 12.1273 8.51994 12.1234 8.49034 12.1157L8.17604 12.0352C8.13029 12.0234 8.08731 12.0027 8.04957 11.9742C8.01183 11.9457 7.98007 11.9101 7.95611 11.8694C7.93215 11.8286 7.91645 11.7835 7.90992 11.7367C7.90339 11.6899 7.90616 11.6422 7.91806 11.5964L10.5794 1.30671C10.5995 1.22964 10.6447 1.16145 10.7078 1.11288C10.7709 1.0643 10.8484 1.03809 10.928 1.03837C10.9584 1.03845 10.9887 1.04233 11.0181 1.04991L11.3327 1.13041C11.4249 1.15434 11.5038 1.21389 11.5522 1.296C11.6005 1.3781 11.6144 1.47605 11.5907 1.56835L8.92799 11.8578C8.90819 11.9349 8.86335 12.0031 8.80054 12.0519C8.73772 12.1007 8.66049 12.1272 8.58098 12.1272Z" fill="white"/>
<path d="M10.9269 1.18462C10.945 1.18467 10.963 1.18692 10.9806 1.19132L11.2951 1.27183C11.3494 1.28631 11.3957 1.32173 11.4239 1.37032C11.4521 1.41892 11.4599 1.47672 11.4456 1.53105L8.78506 11.8213C8.77336 11.8666 8.74697 11.9067 8.71004 11.9354C8.6731 11.964 8.62771 11.9796 8.58098 11.9796C8.56287 11.9797 8.54483 11.9774 8.52734 11.9727L8.21278 11.8922C8.18584 11.8853 8.16054 11.8732 8.13834 11.8565C8.11615 11.8398 8.09751 11.8188 8.08352 11.7948C8.06929 11.7708 8.05995 11.7442 8.05604 11.7165C8.05213 11.6889 8.05372 11.6608 8.06073 11.6337L10.7215 1.34375C10.7333 1.29819 10.7599 1.25784 10.797 1.22903C10.8342 1.20023 10.8799 1.18461 10.9269 1.18462ZM10.9269 0.889435C10.8147 0.889546 10.7056 0.926944 10.6169 0.995763C10.5282 1.06458 10.4648 1.16093 10.4367 1.26968L7.77513 11.5594C7.74172 11.6895 7.76127 11.8276 7.8295 11.9433C7.89773 12.059 8.00905 12.1429 8.13903 12.1766L8.45333 12.2571C8.495 12.2681 8.5379 12.2736 8.58098 12.2735C8.69314 12.2734 8.8021 12.236 8.89074 12.1673C8.97937 12.0985 9.04266 12.0022 9.07066 11.8935L11.7323 1.60377C11.7657 1.47368 11.7463 1.3356 11.6781 1.21987C11.6099 1.10415 11.4986 1.02024 11.3686 0.986577L11.054 0.906073C11.0125 0.895259 10.9698 0.889491 10.9269 0.889435Z" fill="#285D56"/>
<path d="M15.4191 12.1272C15.3397 12.1272 15.2626 12.1008 15.1997 12.0523C15.1369 12.0037 15.0919 11.9357 15.0718 11.8589L12.411 1.56808C12.3875 1.47597 12.4014 1.37829 12.4496 1.29639C12.4979 1.21448 12.5765 1.155 12.6684 1.13095L12.9827 1.05044C13.0123 1.04288 13.0426 1.03901 13.0731 1.0389C13.1525 1.03888 13.2297 1.06521 13.2925 1.11377C13.3554 1.16233 13.4003 1.23038 13.4204 1.30725L16.082 11.5964C16.1058 11.6887 16.092 11.7867 16.0437 11.8688C15.9954 11.9509 15.9164 12.0105 15.8243 12.0344L15.5094 12.1149C15.48 12.1229 15.4496 12.127 15.4191 12.1272Z" fill="white"/>
<path d="M13.0731 1.18462C13.12 1.18466 13.1655 1.20032 13.2025 1.22914C13.2395 1.25795 13.2659 1.29828 13.2775 1.34375L15.939 11.6335C15.9531 11.6879 15.9449 11.7456 15.9164 11.7939C15.8879 11.8423 15.8413 11.8773 15.787 11.8914L15.4724 11.9719C15.4549 11.9764 15.4369 11.9786 15.4188 11.9786C15.372 11.9785 15.3265 11.9629 15.2895 11.9342C15.2526 11.9055 15.2261 11.8653 15.2144 11.82L12.5531 1.53132C12.5393 1.47677 12.5476 1.41896 12.5762 1.37053C12.6049 1.3221 12.6515 1.287 12.706 1.2729L13.0197 1.1924C13.0373 1.18782 13.0553 1.18547 13.0734 1.18542L13.0731 1.18462ZM13.0734 0.89024C13.0304 0.890299 12.9876 0.895799 12.946 0.906609L12.632 0.987113C12.5019 1.02072 12.3905 1.10459 12.3223 1.22031C12.254 1.33604 12.2344 1.47414 12.2678 1.60431L14.9291 11.8948C14.9572 12.0035 15.0206 12.0998 15.1092 12.1686C15.1979 12.2373 15.3069 12.2747 15.4191 12.2748C15.462 12.2749 15.5049 12.2694 15.5464 12.2585L15.861 12.178C15.991 12.1443 16.1023 12.0604 16.1705 11.9447C16.2387 11.8289 16.2581 11.6909 16.2246 11.5608L13.5641 1.26968C13.5361 1.16075 13.4726 1.06425 13.3837 0.995404C13.2948 0.926557 13.1855 0.889275 13.0731 0.889435L13.0734 0.89024Z" fill="#285D56"/>
</svg>
