<svg width="35" height="30" viewBox="0 0 35 30" fill="none" xmlns="http://www.w3.org/2000/svg">
<path d="M23.1514 20.8182V1.90909H1.33325V20.8182H23.1514ZM23.1514 20.8182H33.3333V13.5455L28.9696 9.18182H23.1514V20.8182ZM11.5151 24.4545C11.5151 26.4629 9.88701 28.0909 7.87871 28.0909C5.8704 28.0909 4.24234 26.4629 4.24234 24.4545C4.24234 22.4462 5.8704 20.8182 7.87871 20.8182C9.88701 20.8182 11.5151 22.4462 11.5151 24.4545ZM30.4242 24.4545C30.4242 26.4629 28.7961 28.0909 26.7878 28.0909C24.7795 28.0909 23.1514 26.4629 23.1514 24.4545C23.1514 22.4462 24.7795 20.8182 26.7878 20.8182C28.7961 20.8182 30.4242 22.4462 30.4242 24.4545Z" stroke="#BDBDBD" stroke-width="2" stroke-linecap="round" stroke-linejoin="round"/>
</svg>
